<?xml version="1.0" encoding="UTF-8" standalone="no"?>
<!-- Created with Inkscape (http://www.inkscape.org/) -->
<svg
   xmlns:dc="http://purl.org/dc/elements/1.1/"
   xmlns:cc="http://web.resource.org/cc/"
   xmlns:rdf="http://www.w3.org/1999/02/22-rdf-syntax-ns#"
   xmlns:svg="http://www.w3.org/2000/svg"
   xmlns="http://www.w3.org/2000/svg"
   xmlns:xlink="http://www.w3.org/1999/xlink"
   xmlns:sodipodi="http://sodipodi.sourceforge.net/DTD/sodipodi-0.dtd"
   xmlns:inkscape="http://www.inkscape.org/namespaces/inkscape"
   width="105.43276"
   height="105.43276"
   id="svg2"
   sodipodi:version="0.32"
   inkscape:version="0.45"
   version="1.0"
   sodipodi:docbase="/home/andrew"
   sodipodi:docname="webstart.svg"
   inkscape:output_extension="org.inkscape.output.svg.inkscape"
   inkscape:export-filename="/home/andrew/weblogo-fun.png"
   inkscape:export-xdpi="90"
   inkscape:export-ydpi="90"
   sodipodi:modified="true">
  <defs
     id="defs4">
    <linearGradient
       id="linearGradient16020">
      <stop
         style="stop-color:#0c0000;stop-opacity:1"
         offset="0"
         id="stop16022" />
      <stop
         style="stop-color:#0c0000;stop-opacity:0;"
         offset="1"
         id="stop16024" />
    </linearGradient>
    <linearGradient
       inkscape:collect="always"
       id="linearGradient12072">
      <stop
         style="stop-color:#ffffff;stop-opacity:1;"
         offset="0"
         id="stop12074" />
      <stop
         style="stop-color:#ffffff;stop-opacity:0;"
         offset="1"
         id="stop12076" />
    </linearGradient>
    <linearGradient
       inkscape:collect="always"
       xlink:href="#linearGradient12072"
       id="linearGradient12078"
       x1="1.9544612"
       y1="-3.2654967"
       x2="59.883366"
       y2="54.821289"
       gradientUnits="userSpaceOnUse" />
    <filter
       inkscape:collect="always"
       id="filter13109">
      <feGaussianBlur
         inkscape:collect="always"
         stdDeviation="2.0537983"
         id="feGaussianBlur13111" />
    </filter>
  </defs>
  <sodipodi:namedview
     id="base"
     pagecolor="#ffffff"
     bordercolor="#666666"
     borderopacity="1.0"
     gridtolerance="10000"
     guidetolerance="10"
     objecttolerance="10"
     inkscape:pageopacity="0.0"
     inkscape:pageshadow="2"
     inkscape:zoom="2.7282537"
     inkscape:cx="116.90462"
     inkscape:cy="63.076198"
     inkscape:document-units="px"
     inkscape:current-layer="layer1"
     width="100px"
     height="100px"
     showgrid="true"
     gridspacingx="1px"
     gridspacingy="1px"
     inkscape:window-width="918"
     inkscape:window-height="679"
     inkscape:window-x="131"
     inkscape:window-y="75" />
  <metadata
     id="metadata7">
    <rdf:RDF>
      <cc:Work
         rdf:about="">
        <dc:format>image/svg+xml</dc:format>
        <dc:type
           rdf:resource="http://purl.org/dc/dcmitype/StillImage" />
      </cc:Work>
    </rdf:RDF>
  </metadata>
  <g
     inkscape:label="Layer 1"
     inkscape:groupmode="layer"
     id="layer1"
     transform="translate(0.432762,-15.292017)">
    <path
       d="M 69.117645,2.9411762 L 74.204732,11.505909 L 83.094294,7.0104903 L 85.891598,16.571253 L 95.619843,14.427811 L 95.9516,24.383866 L 105.90727,24.72708 L 103.75263,34.452852 L 113.31017,37.261157 L 108.80452,46.145539 L 117.3634,51.242479 L 110.78985,58.727234 L 117.81227,65.792549 L 109.58386,71.407382 L 114.62859,79.997133 L 105.26233,83.389242 L 108.01239,92.963703 L 98.09681,93.919951 L 98.379395,103.87752 L 88.537524,102.33783 L 86.334883,112.05284 L 77.18512,108.11394 L 72.635654,116.97596 L 64.752912,110.88536 L 58.14248,118.33756 L 52.022061,110.47794 L 43.766021,116.05207 L 39.792493,106.91729 L 30.409602,110.2631 L 28.832637,100.42714 L 18.912458,101.3344 L 19.831141,91.415275 L 9.996994,89.826991 L 13.353603,80.447958 L 4.2234032,76.46392 L 9.8070287,68.2143 L 1.9544612,62.08484 L 9.4142636,55.482989 L 3.3327338,47.593243 L 12.199986,43.053978 L 8.2716191,33.899688 L 17.98916,31.708229 L 16.460789,21.864592 L 26.418029,22.158636 L 27.385687,12.244165 L 36.956977,15.005236 L 40.359863,5.6428929 L 48.943802,10.697502 L 54.568101,2.4755582 L 61.62533,9.5061068 L 69.117645,2.9411762 z "
       inkscape:randomized="0"
       inkscape:rounded="0"
       inkscape:flatsided="false"
       sodipodi:arg2="-1.2874776"
       sodipodi:arg1="-1.4131413"
       sodipodi:r2="50.814011"
       sodipodi:r1="58.073154"
       sodipodi:cy="60.294117"
       sodipodi:cx="60"
       sodipodi:sides="25"
       id="path12086"
       style="opacity:1;fill:#0c0000;fill-opacity:1;fill-rule:evenodd;stroke:#cccccc;stroke-width:1.5;stroke-linecap:round;stroke-linejoin:round;stroke-miterlimit:4;stroke-dasharray:none;stroke-opacity:1;filter:url(#filter13109)"
       sodipodi:type="star"
       transform="matrix(0.8983875,0,0,0.898355,-1.514847,13.741865)" />
    <path
       sodipodi:type="star"
       style="fill:#f56c00;fill-opacity:1;fill-rule:evenodd;stroke:#cccccc;stroke-width:1.5;stroke-linecap:round;stroke-linejoin:round;stroke-miterlimit:4;stroke-dasharray:none;stroke-opacity:1"
       id="path3327"
       sodipodi:sides="25"
       sodipodi:cx="60"
       sodipodi:cy="60.294117"
       sodipodi:r1="58.073154"
       sodipodi:r2="50.814011"
       sodipodi:arg1="-1.4131413"
       sodipodi:arg2="-1.2874776"
       inkscape:flatsided="false"
       inkscape:rounded="0"
       inkscape:randomized="0"
       d="M 69.117645,2.9411762 L 74.204732,11.505909 L 83.094294,7.0104903 L 85.891598,16.571253 L 95.619843,14.427811 L 95.9516,24.383866 L 105.90727,24.72708 L 103.75263,34.452852 L 113.31017,37.261157 L 108.80452,46.145539 L 117.3634,51.242479 L 110.78985,58.727234 L 117.81227,65.792549 L 109.58386,71.407382 L 114.62859,79.997133 L 105.26233,83.389242 L 108.01239,92.963703 L 98.09681,93.919951 L 98.379395,103.87752 L 88.537524,102.33783 L 86.334883,112.05284 L 77.18512,108.11394 L 72.635654,116.97596 L 64.752912,110.88536 L 58.14248,118.33756 L 52.022061,110.47794 L 43.766021,116.05207 L 39.792493,106.91729 L 30.409602,110.2631 L 28.832637,100.42714 L 18.912458,101.3344 L 19.831141,91.415275 L 9.996994,89.826991 L 13.353603,80.447958 L 4.2234032,76.46392 L 9.8070287,68.2143 L 1.9544612,62.08484 L 9.4142636,55.482989 L 3.3327338,47.593243 L 12.199986,43.053978 L 8.2716191,33.899688 L 17.98916,31.708229 L 16.460789,21.864592 L 26.418029,22.158636 L 27.385687,12.244165 L 36.956977,15.005236 L 40.359863,5.6428929 L 48.943802,10.697502 L 54.568101,2.4755582 L 61.62533,9.5061068 L 69.117645,2.9411762 z "
       transform="matrix(0.8733221,0,0,0.8732905,-1.3848528e-2,15.255923)" />
    <path
       d="M 69.117645,2.9411762 L 74.204732,11.505909 L 83.094294,7.0104903 L 85.891598,16.571253 L 95.619843,14.427811 L 95.9516,24.383866 L 105.90727,24.72708 L 103.75263,34.452852 L 113.31017,37.261157 L 108.80452,46.145539 L 117.3634,51.242479 L 110.78985,58.727234 L 117.81227,65.792549 L 109.58386,71.407382 L 114.62859,79.997133 L 105.26233,83.389242 L 108.01239,92.963703 L 98.09681,93.919951 L 98.379395,103.87752 L 88.537524,102.33783 L 86.334883,112.05284 L 77.18512,108.11394 L 72.635654,116.97596 L 64.752912,110.88536 L 58.14248,118.33756 L 52.022061,110.47794 L 43.766021,116.05207 L 39.792493,106.91729 L 30.409602,110.2631 L 28.832637,100.42714 L 18.912458,101.3344 L 19.831141,91.415275 L 9.996994,89.826991 L 13.353603,80.447958 L 4.2234032,76.46392 L 9.8070287,68.2143 L 1.9544612,62.08484 L 9.4142636,55.482989 L 3.3327338,47.593243 L 12.199986,43.053978 L 8.2716191,33.899688 L 17.98916,31.708229 L 16.460789,21.864592 L 26.418029,22.158636 L 27.385687,12.244165 L 36.956977,15.005236 L 40.359863,5.6428929 L 48.943802,10.697502 L 54.568101,2.4755582 L 61.62533,9.5061068 L 69.117645,2.9411762 z "
       inkscape:randomized="0"
       inkscape:rounded="0"
       inkscape:flatsided="false"
       sodipodi:arg2="-1.2874776"
       sodipodi:arg1="-1.4131413"
       sodipodi:r2="50.814011"
       sodipodi:r1="58.073154"
       sodipodi:cy="60.294117"
       sodipodi:cx="60"
       sodipodi:sides="25"
       id="path8194"
       style="fill:url(#linearGradient12078);fill-opacity:1;fill-rule:evenodd;stroke:none;stroke-width:2;stroke-linecap:round;stroke-linejoin:round;stroke-miterlimit:4;stroke-dasharray:none;stroke-opacity:1"
       sodipodi:type="star"
       transform="matrix(0.8337772,0,0,0.8337471,3.8231594,16.173801)" />
    <text
       xml:space="preserve"
       style="font-size:11.53399181px;font-style:normal;font-weight:normal;fill:#000000;fill-opacity:1;stroke:none;stroke-width:1px;stroke-linecap:butt;stroke-linejoin:miter;stroke-opacity:1;font-family:Bitstream Vera Sans"
       x="-9.7473869"
       y="89.882889"
       id="text12080"
       transform="matrix(0.9290644,-0.3699179,0.3699179,0.9290645,0,0)"><tspan
         sodipodi:role="line"
         id="tspan12082"
         x="-9.7473869"
         y="89.882889"
         style="font-size:28.74736404px;fill:#ffffff;font-family:Andale Mono">beta</tspan></text>
  </g>
</svg>
